<svg width="17" height="17" viewBox="0 0 17 17" fill="none" xmlns="http://www.w3.org/2000/svg">
<path d="M16.1428 1.11007C16.0924 1.06899 16.0343 1.03836 15.972 1.01998C15.9096 1.0016 15.8443 0.995817 15.7797 1.00298C15.7151 1.01015 15.6526 1.03011 15.5957 1.06171C15.5389 1.09331 15.4889 1.13592 15.4486 1.18707L7.56382 11.1387L4.98151 7.88123C4.94124 7.83009 4.89124 7.78748 4.83442 7.75588C4.77759 7.72427 4.71507 7.70431 4.65049 7.69715C4.5859 7.68998 4.52054 7.69576 4.4582 7.71414C4.39586 7.73253 4.33779 7.76315 4.28735 7.80423C4.18515 7.88816 4.11996 8.00905 4.10589 8.14077C4.09182 8.27249 4.12998 8.40448 4.21214 8.50822L7.06867 12.113C7.11065 12.1885 7.17203 12.2514 7.24643 12.295C7.32083 12.3387 7.40554 12.3616 7.49174 12.3613C7.51972 12.3594 7.54749 12.3552 7.57479 12.3487C7.59074 12.3534 7.60696 12.3571 7.62336 12.3597C7.70205 12.3592 7.77953 12.3403 7.84969 12.3046C7.91985 12.2688 7.98076 12.2173 8.02763 12.1539L16.2196 1.81406C16.302 1.71028 16.3401 1.57806 16.3257 1.44621C16.3113 1.31435 16.2456 1.19353 16.1428 1.11007Z" fill="#E24309" stroke="#E24309" stroke-width="0.75"/>
<path d="M15.1683 6.08802C15.103 6.08843 15.0385 6.10172 14.9784 6.12714C14.9183 6.15255 14.8638 6.18959 14.8179 6.23614C14.7721 6.28269 14.7359 6.33783 14.7113 6.39843C14.6867 6.45902 14.6743 6.52388 14.6747 6.58929V14.869C14.6751 15.001 14.6234 15.1278 14.531 15.2217C14.4385 15.3156 14.3127 15.369 14.1811 15.3703H2.4839C2.41867 15.3699 2.35416 15.3566 2.29405 15.3312C2.23395 15.3057 2.17942 15.2687 2.13358 15.2222C2.08775 15.1756 2.05151 15.1205 2.02693 15.0599C2.00234 14.9993 1.98991 14.9344 1.99032 14.869V3.01593C1.98991 2.95051 2.00234 2.88566 2.02693 2.82506C2.05151 2.76447 2.08775 2.70932 2.13358 2.66277C2.17942 2.61623 2.23395 2.57919 2.29405 2.55377C2.35416 2.52836 2.41867 2.51507 2.4839 2.51465H10.5818C10.7094 2.50749 10.8293 2.45163 10.9171 2.35856C11.0048 2.26548 11.0537 2.14225 11.0537 2.01416C11.0537 1.88607 11.0048 1.76284 10.9171 1.66977C10.8293 1.5767 10.7094 1.52084 10.5818 1.51367H2.4839C2.08854 1.51575 1.71018 1.67514 1.43194 1.95683C1.1537 2.23851 0.998347 2.61944 1.00001 3.01593V14.869C0.998345 15.2652 1.15348 15.6459 1.43138 15.9276C1.70929 16.2092 2.08725 16.3688 2.48234 16.3713H14.1811C14.5762 16.3688 14.9541 16.2092 15.232 15.9276C15.5099 15.6459 15.6651 15.2652 15.6634 14.869V6.58772C15.6638 6.52231 15.6514 6.45745 15.6268 6.39686C15.6022 6.33626 15.566 6.28111 15.5202 6.23457C15.4743 6.18802 15.4198 6.15098 15.3597 6.12557C15.2996 6.10015 15.2351 6.08686 15.1698 6.08645L15.1683 6.08802Z" fill="#1D1D1B" stroke="#231F20" stroke-width="0.75"/>
</svg>
