<svg width="14" height="14" viewBox="0 0 14 14" fill="none" xmlns="http://www.w3.org/2000/svg">
<mask id="mask0" style="mask-type:alpha" maskUnits="userSpaceOnUse" x="0" y="0" width="14" height="14">
<rect x="0.5" y="0.5" width="13" height="13" fill="#7A7A9D" stroke="#7A7A9D"/>
</mask>
<g mask="url(#mask0)">
<path d="M7.2297 10.1464C7.03444 10.3417 7.03444 10.6583 7.2297 10.8536C7.42496 11.0488 7.74154 11.0488 7.93681 10.8536L7.2297 10.1464ZM11.0833 7L11.4368 7.35355L11.7904 7L11.4368 6.64645L11.0833 7ZM7.93681 3.14645C7.74154 2.95118 7.42496 2.95118 7.2297 3.14645C7.03444 3.34171 7.03444 3.65829 7.2297 3.85355L7.93681 3.14645ZM2.33325 6.5C2.05711 6.5 1.83325 6.72386 1.83325 7C1.83325 7.27614 2.05711 7.5 2.33325 7.5L2.33325 6.5ZM7.93681 10.8536L11.4368 7.35355L10.7297 6.64645L7.2297 10.1464L7.93681 10.8536ZM11.4368 6.64645L7.93681 3.14645L7.2297 3.85355L10.7297 7.35355L11.4368 6.64645ZM11.0833 6.5L2.33325 6.5L2.33325 7.5L11.0833 7.5L11.0833 6.5Z" fill="#7A7A9D"/>
</g>
</svg>
