<svg width="16" height="16" viewBox="0 0 16 16" fill="none" xmlns="http://www.w3.org/2000/svg">
<path d="M10.3671 8.66406L9.02712 10.0086C8.48371 10.5539 7.52759 10.5657 6.97243 10.0086L5.63234 8.66406L0.819336 13.4927C0.998492 13.5755 1.19602 13.625 1.40602 13.625H14.5935C14.8035 13.625 15.001 13.5756 15.1801 13.4927L10.3671 8.66406Z" fill="black"/>
<path d="M14.5939 2.375H1.40645C1.19645 2.375 0.998918 2.42444 0.819824 2.50728L5.96286 7.66738C5.9632 7.66772 5.96361 7.66778 5.96395 7.66813C5.96429 7.66847 5.96436 7.66894 5.96436 7.66894L7.63664 9.34675C7.81426 9.52438 8.1862 9.52438 8.36382 9.34675L10.0358 7.66922C10.0358 7.66922 10.0362 7.66847 10.0365 7.66813C10.0365 7.66813 10.0373 7.66772 10.0376 7.66738L15.1805 2.50725C15.0014 2.42438 14.8039 2.375 14.5939 2.375Z" fill="black"/>
<path d="M0.149562 3.16284C0.056875 3.35028 0 3.55834 0 3.78122V12.2187C0 12.4416 0.0568125 12.6497 0.149531 12.8371L4.97087 8.00012L0.149562 3.16284Z" fill="black"/>
<path d="M15.8505 3.16284L11.0293 8.00019L15.8505 12.8372C15.9432 12.6498 16.0001 12.4417 16.0001 12.2188V3.78128C16.0001 3.55834 15.9432 3.35028 15.8505 3.16284Z" fill="black"/>
</svg>
