<svg width="14" height="15" viewBox="0 0 14 15" fill="none" xmlns="http://www.w3.org/2000/svg">
<g clip-path="url(#clip0_695:7934)">
<path fill-rule="evenodd" clip-rule="evenodd" d="M6.95098 5.71051L1.85094 10.8105L0.984863 9.9445L6.95098 3.97839L12.9171 9.9445L12.051 10.8105L6.95098 5.71051Z" fill="#EE4D2D"/>
<path d="M1.85094 10.8105L1.58578 11.0757L1.85094 11.3409L2.1161 11.0757L1.85094 10.8105ZM6.95098 5.71051L7.21614 5.44534L6.95098 5.18018L6.68581 5.44534L6.95098 5.71051ZM0.984863 9.9445L0.719698 9.67934L0.454529 9.94451L0.719703 10.2097L0.984863 9.9445ZM6.95098 3.97839L7.21614 3.71322L6.95098 3.44806L6.68581 3.71322L6.95098 3.97839ZM12.9171 9.9445L13.1823 10.2097L13.4474 9.94451L13.1823 9.67934L12.9171 9.9445ZM12.051 10.8105L11.7859 11.0757L12.051 11.3409L12.3162 11.0757L12.051 10.8105ZM2.1161 11.0757L7.21614 5.97567L6.68581 5.44534L1.58577 10.5454L2.1161 11.0757ZM0.719703 10.2097L1.58578 11.0757L2.1161 10.5454L1.25002 9.67933L0.719703 10.2097ZM6.68581 3.71322L0.719698 9.67934L1.25003 10.2097L7.21614 4.24355L6.68581 3.71322ZM13.1823 9.67934L7.21614 3.71322L6.68581 4.24355L12.6519 10.2097L13.1823 9.67934ZM12.3162 11.0757L13.1823 10.2097L12.6519 9.67933L11.7859 10.5454L12.3162 11.0757ZM6.68581 5.97567L11.7859 11.0757L12.3162 10.5454L7.21614 5.44534L6.68581 5.97567Z" fill="#EE4D2D"/>
</g>
<defs>
<clipPath id="clip0_695:7934">
<rect width="13.348" height="13.348" fill="white" transform="translate(0.276855 14.0684) rotate(-90)"/>
</clipPath>
</defs>
</svg>
