<svg width="16" height="16" viewBox="0 0 16 16" fill="none" xmlns="http://www.w3.org/2000/svg">
<mask id="mask0_440:9012" style="mask-type:alpha" maskUnits="userSpaceOnUse" x="0" y="0" width="16" height="17">
<rect width="16" height="16" transform="matrix(-4.37114e-08 1 1 4.37114e-08 0 0.000976562)" fill="#EE4D2D"/>
</mask>
<g mask="url(#mask0_440:9012)">
<path d="M11.6464 8.31442C11.8417 8.11915 12.1583 8.11915 12.3536 8.31442C12.5488 8.50968 12.5488 8.82626 12.3536 9.02152L11.6464 8.31442ZM8 12.668L8.35355 13.0215L8 13.3751L7.64645 13.0215L8 12.668ZM3.64645 9.02152C3.45118 8.82626 3.45118 8.50968 3.64645 8.31442C3.84171 8.11915 4.15829 8.11915 4.35355 8.31442L3.64645 9.02152ZM7.5 2.66797C7.5 2.39183 7.72386 2.16797 8 2.16797C8.27614 2.16797 8.5 2.39183 8.5 2.66797L7.5 2.66797ZM12.3536 9.02152L8.35355 13.0215L7.64645 12.3144L11.6464 8.31442L12.3536 9.02152ZM7.64645 13.0215L3.64645 9.02152L4.35355 8.31442L8.35355 12.3144L7.64645 13.0215ZM7.5 12.668L7.5 2.66797L8.5 2.66797L8.5 12.668L7.5 12.668Z" fill="#EE4D2D"/>
</g>
</svg>
