<svg width="41" height="21" viewBox="0 0 41 21" fill="none" xmlns="http://www.w3.org/2000/svg">
<path d="M0 21L-9.17939e-07 1.26466e-06L41 -5.27512e-07L37.4042 10.5L41 21L0 21Z" fill="#FCAF17"/>
<path d="M15.5603 5.6L13.0163 9.8L10.4843 5.6H8.99625V14H10.3763V8L12.9323 12.236H13.1003L15.6562 8.012V14H17.0363V5.6H15.5603ZM20.7991 7.16H22.0471L23.3191 5.54H21.7591L20.7991 7.16ZM21.4591 14.156C22.3471 14.156 23.0911 13.856 23.7031 13.244C24.3151 12.632 24.6271 11.888 24.6271 11C24.6271 10.16 24.3511 9.452 23.7991 8.852C24.3991 8.672 24.6271 8.192 24.6271 7.352V7.148H23.5351V7.352C23.5351 7.808 23.4631 8 23.0191 8H22.4911C22.1671 7.892 21.8311 7.844 21.4591 7.844C20.5831 7.844 19.8271 8.144 19.2151 8.756C18.6031 9.368 18.2911 10.112 18.2911 11C18.2911 11.888 18.6031 12.632 19.2151 13.244C19.8271 13.856 20.5831 14.156 21.4591 14.156ZM20.1271 12.356C19.7671 11.996 19.5871 11.54 19.5871 11C19.5871 10.46 19.7671 10.004 20.1271 9.644C20.4871 9.284 20.9311 9.104 21.4591 9.104C21.9871 9.104 22.4311 9.284 22.7911 9.644C23.1511 10.004 23.3311 10.46 23.3311 11C23.3311 11.54 23.1511 11.996 22.7911 12.356C22.4311 12.716 21.9871 12.896 21.4591 12.896C20.9311 12.896 20.4871 12.716 20.1271 12.356ZM27.011 7.064C27.335 6.728 27.335 6.248 27.023 5.924C26.699 5.6 26.195 5.6 25.871 5.924C25.559 6.248 25.559 6.728 25.871 7.064C26.207 7.376 26.687 7.376 27.011 7.064ZM27.095 14V8H25.799V14H27.095Z" fill="#F8F8F8"/>
</svg>
