<svg width="70" height="70" viewBox="0 0 70 70" fill="none" xmlns="http://www.w3.org/2000/svg">
<g style="mix-blend-mode:screen">
<path d="M35 70C54.33 70 70 54.33 70 35C70 15.67 54.33 0 35 0C15.67 0 0 15.67 0 35C0 54.33 15.67 70 35 70Z" fill="black"/>
</g>
<path d="M35 70C54.33 70 70 54.33 70 35C70 15.67 54.33 0 35 0C15.67 0 0 15.67 0 35C0 54.33 15.67 70 35 70Z" fill="black" fill-opacity="0.6"/>
<path fill-rule="evenodd" clip-rule="evenodd" d="M49.2415 36.9091C50.2308 36.3561 50.2215 35.4403 49.2415 34.8721L28.6195 22.4074C27.65 21.8451 26.8461 22.3024 26.8332 23.4224V48.0496C26.8205 49.1684 27.6091 49.6374 28.5856 49.0914L49.2415 36.9091Z" fill="#FEFEFE"/>
</svg>
