<svg width="14" height="15" viewBox="0 0 14 15" fill="none" xmlns="http://www.w3.org/2000/svg">
<g clip-path="url(#clip0_827:33352)">
<path fill-rule="evenodd" clip-rule="evenodd" d="M6.95088 9.25336L12.0509 4.15332L12.917 5.01936L6.95088 10.9855L0.984764 5.01936L1.85084 4.15332L6.95088 9.25336Z" fill="#EE4D2D"/>
<path d="M12.0509 4.15332L12.3161 3.88815L12.0509 3.62299L11.7858 3.88816L12.0509 4.15332ZM6.95088 9.25336L6.68571 9.51852L6.95088 9.78369L7.21604 9.51853L6.95088 9.25336ZM12.917 5.01936L13.1822 5.28453L13.4473 5.01936L13.1822 4.7542L12.917 5.01936ZM6.95088 10.9855L6.68571 11.2506L6.95088 11.5158L7.21604 11.2506L6.95088 10.9855ZM0.984764 5.01936L0.719603 4.75419L0.45443 5.01936L0.719599 5.28453L0.984764 5.01936ZM1.85084 4.15332L2.116 3.88815L1.85084 3.62299L1.58568 3.88815L1.85084 4.15332ZM11.7858 3.88816L6.68571 8.9882L7.21604 9.51853L12.3161 4.41849L11.7858 3.88816ZM13.1822 4.7542L12.3161 3.88815L11.7858 4.41849L12.6518 5.28453L13.1822 4.7542ZM7.21604 11.2506L13.1822 5.28453L12.6518 4.7542L6.68571 10.7203L7.21604 11.2506ZM0.719599 5.28453L6.68571 11.2506L7.21604 10.7203L1.24993 4.7542L0.719599 5.28453ZM1.58568 3.88815L0.719603 4.75419L1.24992 5.28453L2.116 4.41849L1.58568 3.88815ZM7.21604 8.9882L2.116 3.88815L1.58567 4.41848L6.68571 9.51852L7.21604 8.9882Z" fill="#EE4D2D"/>
</g>
<defs>
<clipPath id="clip0_827:33352">
<rect width="13.348" height="13.348" fill="white" transform="translate(13.625 0.895508) rotate(90)"/>
</clipPath>
</defs>
</svg>
