<svg width="24" height="24" viewBox="0 0 24 24" fill="none" xmlns="http://www.w3.org/2000/svg">
<path d="M19.8056 18.8613L15.9567 15.0124C17.0528 13.6739 17.5924 11.9653 17.4638 10.2401C17.3352 8.51484 16.5482 6.90509 15.2657 5.74396C13.9833 4.58282 12.3035 3.95917 10.574 4.00208C8.84455 4.04498 7.19776 4.75115 5.97446 5.97446C4.75115 7.19776 4.04498 8.84455 4.00208 10.574C3.95917 12.3035 4.58282 13.9833 5.74396 15.2657C6.90509 16.5482 8.51484 17.3352 10.2401 17.4638C11.9653 17.5924 13.6739 17.0528 15.0124 15.9567L18.8613 19.8023C18.9231 19.8643 18.9965 19.9136 19.0773 19.9472C19.1581 19.9808 19.2447 19.9982 19.3323 19.9984C19.4198 19.9985 19.5065 19.9814 19.5875 19.9481C19.6684 19.9147 19.742 19.8657 19.804 19.804C19.866 19.7422 19.9152 19.6688 19.9488 19.5879C19.9825 19.5071 19.9998 19.4205 20 19.3329C20.0001 19.2454 19.9831 19.1587 19.9497 19.0778C19.9163 18.9968 19.8674 18.9233 19.8056 18.8613ZM10.7391 16.1395C9.67005 16.1391 8.6251 15.8217 7.73639 15.2274C6.84769 14.6332 6.15516 13.7888 5.74636 12.8009C5.33757 11.8131 5.23087 10.7262 5.43977 9.67774C5.64867 8.62927 6.16377 7.66629 6.91995 6.91056C7.67613 6.15483 8.63942 5.6403 9.68802 5.43203C10.7366 5.22377 11.8234 5.33111 12.811 5.74049C13.7986 6.14988 14.6426 6.84292 15.2363 7.73197C15.8301 8.62103 16.1468 9.66618 16.1466 10.7353C16.1449 12.1686 15.5745 13.5427 14.5607 14.5559C13.5469 15.5691 12.1725 16.1386 10.7391 16.1395Z" fill="#22215B"/>
</svg>
