<svg width="25" height="23" viewBox="0 0 25 23" fill="none" xmlns="http://www.w3.org/2000/svg">
<path fill-rule="evenodd" clip-rule="evenodd" d="M8.23364 15.0159H8.23254C7.84564 15.0168 7.53125 15.3318 7.53125 15.7189C7.53125 16.1065 7.84674 16.422 8.23437 16.422H20.9844C21.3727 16.422 21.6875 16.7368 21.6875 17.1251C21.6875 17.5135 21.3727 17.8282 20.9844 17.8282H19.606C20.7563 17.8432 21.6875 18.7837 21.6875 19.9374C21.6875 21.1005 20.7413 22.0468 19.5782 22.0468C18.4151 22.0468 17.4688 21.1005 17.4688 19.9374C17.4688 18.7837 18.4 17.8432 19.5503 17.8282H9.66852C10.8188 17.8432 11.75 18.7837 11.75 19.9374C11.75 21.1005 10.8037 22.0468 9.64066 22.0468C8.47757 22.0468 7.53128 21.1005 7.53128 19.9374C7.53128 18.7837 8.4625 17.8432 9.61279 17.8282H8.23437C7.07129 17.8282 6.125 16.882 6.125 15.7189C6.125 14.8533 6.64923 14.1083 7.39648 13.7834L4.85791 2.3595H1.20312C0.814758 2.3595 0.5 2.04474 0.5 1.65637C0.5 1.26801 0.814758 0.953247 1.20312 0.953247H5.42187C5.75146 0.953247 6.03674 1.18213 6.10834 1.50385L6.61096 3.76575H23.7969C24.0175 3.76575 24.2253 3.86938 24.3583 4.04553C24.491 4.22168 24.5335 4.44983 24.4729 4.66205L21.6604 14.5058C21.5742 14.8076 21.2982 15.0157 20.9844 15.0157H8.23639L8.23364 15.0159ZM20.4539 13.6095L22.8647 5.172H6.92334L8.79834 13.6095H20.4539ZM10.3438 19.9374C10.3438 19.5498 10.0283 19.2343 9.64066 19.2343C9.25302 19.2343 8.93753 19.5498 8.93753 19.9374C8.93753 20.3251 9.25302 20.6406 9.64066 20.6406C10.0283 20.6406 10.3438 20.3251 10.3438 19.9374ZM19.5782 19.2343C19.9658 19.2343 20.2813 19.5498 20.2813 19.9374C20.2813 20.3251 19.9658 20.6406 19.5782 20.6406C19.1905 20.6406 18.875 20.3251 18.875 19.9374C18.875 19.5498 19.1905 19.2343 19.5782 19.2343ZM17.1995 10C17.476 10 17.5 9.7765 17.5 9.5C17.5 9.2235 17.476 9 17.1995 9H15V6.8005C15 6.524 14.7765 6.5 14.5 6.5C14.2235 6.5 14 6.524 14 6.8005V9H11.8005C11.5245 9 11.5 9.2235 11.5 9.5C11.5 9.7765 11.5245 10 11.8005 10H14V12.1995C14 12.4755 14.2235 12.5 14.5 12.5C14.7765 12.5 15 12.4755 15 12.1995V10H17.1995Z" fill="#11006F"/>
<path d="M8.23254 15.0159L8.23254 14.8909L8.23225 14.8909L8.23254 15.0159ZM8.23364 15.0159V15.1412L8.24196 15.1407L8.23364 15.0159ZM19.606 17.8282V17.7032L19.6044 17.9532L19.606 17.8282ZM19.5503 17.8282L19.5519 17.9532L19.5503 17.7032V17.8282ZM9.66852 17.8282V17.7032L9.66689 17.9532L9.66852 17.8282ZM9.61279 17.8282L9.61442 17.9532L9.61279 17.7032V17.8282ZM7.39648 13.7834L7.44632 13.8981L7.54087 13.857L7.51851 13.7563L7.39648 13.7834ZM4.85791 2.3595L4.97993 2.33238L4.95818 2.2345H4.85791V2.3595ZM6.10834 1.50385L6.23036 1.47673L6.23035 1.47669L6.10834 1.50385ZM6.61096 3.76575L6.48894 3.79286L6.51069 3.89075H6.61096V3.76575ZM24.3583 4.04553L24.4581 3.9703L24.4581 3.97023L24.3583 4.04553ZM24.4729 4.66205L24.5931 4.69639L24.5931 4.69637L24.4729 4.66205ZM21.6604 14.5058L21.7806 14.5401L21.7806 14.5401L21.6604 14.5058ZM8.23639 15.0157V14.8905L8.22807 14.891L8.23639 15.0157ZM22.8647 5.172L22.9849 5.20634L23.0304 5.047H22.8647V5.172ZM20.4539 13.6095V13.7345H20.5482L20.5741 13.6438L20.4539 13.6095ZM6.92334 5.172V5.047H6.76751L6.80132 5.19911L6.92334 5.172ZM8.79834 13.6095L8.67632 13.6366L8.69807 13.7345H8.79834V13.6095ZM15 9H14.875V9.125H15V9ZM14 9V9.125H14.125V9H14ZM14 10H14.125V9.875H14V10ZM15 10V9.875H14.875V10H15ZM8.23254 15.1409H8.23364V14.8909H8.23254V15.1409ZM7.65625 15.7189C7.65625 15.4007 7.91483 15.1417 8.23284 15.1409L8.23225 14.8909C7.77645 14.892 7.40625 15.2628 7.40625 15.7189H7.65625ZM8.23437 16.297C7.91578 16.297 7.65625 16.0375 7.65625 15.7189H7.40625C7.40625 16.1755 7.7777 16.547 8.23437 16.547V16.297ZM20.9844 16.297H8.23437V16.547H20.9844V16.297ZM21.8125 17.1251C21.8125 16.6677 21.4418 16.297 20.9844 16.297V16.547C21.3037 16.547 21.5625 16.8058 21.5625 17.1251H21.8125ZM20.9844 17.9532C21.4418 17.9532 21.8125 17.5825 21.8125 17.1251H21.5625C21.5625 17.4445 21.3037 17.7032 20.9844 17.7032V17.9532ZM19.606 17.9532H20.9844V17.7032H19.606V17.9532ZM21.8125 19.9374C21.8125 18.7152 20.8263 17.7191 19.6077 17.7033L19.6044 17.9532C20.6864 17.9673 21.5625 18.8522 21.5625 19.9374H21.8125ZM19.5782 22.1718C20.8103 22.1718 21.8125 21.1696 21.8125 19.9374H21.5625C21.5625 21.0315 20.6722 21.9218 19.5782 21.9218V22.1718ZM17.3438 19.9374C17.3438 21.1696 18.346 22.1718 19.5782 22.1718V21.9218C18.4841 21.9218 17.5938 21.0315 17.5938 19.9374H17.3438ZM19.5487 17.7033C18.3301 17.7191 17.3438 18.7152 17.3438 19.9374H17.5938C17.5938 18.8522 18.4699 17.9673 19.5519 17.9532L19.5487 17.7033ZM9.66852 17.9532H19.5503V17.7032H9.66852V17.9532ZM11.875 19.9374C11.875 18.7152 10.8887 17.7191 9.67015 17.7033L9.66689 17.9532C10.7489 17.9673 11.625 18.8522 11.625 19.9374H11.875ZM9.64066 22.1718C10.8728 22.1718 11.875 21.1696 11.875 19.9374H11.625C11.625 21.0315 10.7347 21.9218 9.64066 21.9218V22.1718ZM7.40628 19.9374C7.40628 21.1696 8.40854 22.1718 9.64066 22.1718V21.9218C8.54661 21.9218 7.65628 21.0315 7.65628 19.9374H7.40628ZM9.61117 17.7033C8.39257 17.7191 7.40628 18.7152 7.40628 19.9374H7.65628C7.65628 18.8522 8.53242 17.9673 9.61442 17.9532L9.61117 17.7033ZM8.23437 17.9532H9.61279V17.7032H8.23437V17.9532ZM6 15.7189C6 16.951 7.00225 17.9532 8.23437 17.9532V17.7032C7.14032 17.7032 6.25 16.8129 6.25 15.7189H6ZM7.34665 13.6688C6.55557 14.0127 6 14.8016 6 15.7189H6.25C6.25 14.9051 6.74289 14.2039 7.44632 13.8981L7.34665 13.6688ZM4.73589 2.38661L7.27446 13.8106L7.51851 13.7563L4.97993 2.33238L4.73589 2.38661ZM1.20312 2.4845H4.85791V2.2345H1.20312V2.4845ZM0.375 1.65637C0.375 2.11377 0.745722 2.4845 1.20312 2.4845V2.2345C0.883794 2.2345 0.625 1.9757 0.625 1.65637H0.375ZM1.20312 0.828247C0.745722 0.828247 0.375 1.19897 0.375 1.65637H0.625C0.625 1.33704 0.883794 1.07825 1.20312 1.07825V0.828247ZM5.42187 0.828247H1.20312V1.07825H5.42187V0.828247ZM6.23035 1.47669C6.14604 1.09783 5.81007 0.828247 5.42187 0.828247V1.07825C5.69286 1.07825 5.92744 1.26643 5.98632 1.531L6.23035 1.47669ZM6.73299 3.73863L6.23036 1.47673L5.98631 1.53096L6.48894 3.79286L6.73299 3.73863ZM23.7969 3.64075H6.61096V3.89075H23.7969V3.64075ZM24.4581 3.97023C24.3015 3.76282 24.0568 3.64075 23.7969 3.64075V3.89075C23.9783 3.89075 24.1492 3.97595 24.2585 4.12083L24.4581 3.97023ZM24.5931 4.69637C24.6645 4.44645 24.6144 4.17774 24.4581 3.9703L24.2585 4.12076C24.3676 4.26562 24.4025 4.45321 24.3527 4.62772L24.5931 4.69637ZM21.7806 14.5401L24.5931 4.69639L24.3527 4.62771L21.5402 14.4715L21.7806 14.5401ZM20.9844 15.1407C21.354 15.1407 21.679 14.8955 21.7806 14.5401L21.5402 14.4714C21.4693 14.7196 21.2424 14.8907 20.9844 14.8907V15.1407ZM8.23639 15.1407H20.9844V14.8907H8.23639V15.1407ZM8.24196 15.1407L8.2447 15.1405L8.22807 14.891L8.22533 14.8912L8.24196 15.1407ZM22.7445 5.13766L20.3337 13.5752L20.5741 13.6438L22.9849 5.20634L22.7445 5.13766ZM6.92334 5.297H22.8647V5.047H6.92334V5.297ZM8.92036 13.5824L7.04536 5.14488L6.80132 5.19911L8.67632 13.6366L8.92036 13.5824ZM20.4539 13.4845H8.79834V13.7345H20.4539V13.4845ZM9.64066 19.3593C9.95926 19.3593 10.2188 19.6188 10.2188 19.9374H10.4688C10.4688 19.4808 10.0973 19.1093 9.64066 19.1093V19.3593ZM9.06253 19.9374C9.06253 19.6188 9.32206 19.3593 9.64066 19.3593V19.1093C9.18399 19.1093 8.81253 19.4808 8.81253 19.9374H9.06253ZM9.64066 20.5156C9.32206 20.5156 9.06253 20.256 9.06253 19.9374H8.81253C8.81253 20.3941 9.18399 20.7656 9.64066 20.7656V20.5156ZM10.2188 19.9374C10.2188 20.256 9.95926 20.5156 9.64066 20.5156V20.7656C10.0973 20.7656 10.4688 20.3941 10.4688 19.9374H10.2188ZM20.4063 19.9374C20.4063 19.4808 20.0348 19.1093 19.5782 19.1093V19.3593C19.8968 19.3593 20.1563 19.6188 20.1563 19.9374H20.4063ZM19.5782 20.7656C20.0348 20.7656 20.4063 20.3941 20.4063 19.9374H20.1563C20.1563 20.256 19.8968 20.5156 19.5782 20.5156V20.7656ZM18.75 19.9374C18.75 20.3941 19.1215 20.7656 19.5782 20.7656V20.5156C19.2596 20.5156 19 20.256 19 19.9374H18.75ZM19.5782 19.1093C19.1215 19.1093 18.75 19.4808 18.75 19.9374H19C19 19.6188 19.2596 19.3593 19.5782 19.3593V19.1093ZM17.375 9.5C17.375 9.64197 17.3673 9.7402 17.3394 9.80253C17.3273 9.82947 17.3134 9.84456 17.2977 9.85426C17.281 9.86446 17.2519 9.875 17.1995 9.875V10.125C17.2853 10.125 17.3629 10.1076 17.4285 10.0673C17.495 10.0264 17.539 9.96835 17.5675 9.90484C17.6206 9.78631 17.625 9.63453 17.625 9.5H17.375ZM17.1995 9.125C17.2519 9.125 17.281 9.13554 17.2977 9.14575C17.3134 9.15545 17.3273 9.17054 17.3394 9.19747C17.3673 9.25981 17.375 9.35803 17.375 9.5H17.625C17.625 9.36547 17.6206 9.2137 17.5675 9.09516C17.539 9.03166 17.495 8.97359 17.4285 8.93274C17.3629 8.8924 17.2853 8.875 17.1995 8.875V9.125ZM15 9.125H17.1995V8.875H15V9.125ZM14.875 6.8005V9H15.125V6.8005H14.875ZM14.5 6.625C14.642 6.625 14.7402 6.63266 14.8025 6.66062C14.8295 6.6727 14.8445 6.68655 14.8542 6.70234C14.8645 6.71895 14.875 6.74805 14.875 6.8005H15.125C15.125 6.7147 15.1076 6.63712 15.0673 6.57146C15.0264 6.50498 14.9683 6.46099 14.9048 6.43251C14.7863 6.37934 14.6345 6.375 14.5 6.375V6.625ZM14.125 6.8005C14.125 6.74805 14.1355 6.71895 14.1457 6.70234C14.1554 6.68655 14.1705 6.6727 14.1975 6.66062C14.2598 6.63266 14.358 6.625 14.5 6.625V6.375C14.3655 6.375 14.2137 6.37934 14.0952 6.43251C14.0316 6.46099 13.9736 6.50498 13.9327 6.57146C13.8924 6.63712 13.875 6.7147 13.875 6.8005H14.125ZM14.125 9V6.8005H13.875V9H14.125ZM11.8005 9.125H14V8.875H11.8005V9.125ZM11.625 9.5C11.625 9.35815 11.6328 9.25988 11.6608 9.19753C11.6729 9.17056 11.6868 9.15544 11.7026 9.14573C11.7192 9.13552 11.7482 9.125 11.8005 9.125V8.875C11.7148 8.875 11.6373 8.89242 11.5716 8.93276C11.5052 8.97359 11.4612 9.03163 11.4327 9.09509C11.3795 9.21362 11.375 9.36536 11.375 9.5H11.625ZM11.8005 9.875C11.7482 9.875 11.7192 9.86448 11.7026 9.85427C11.6868 9.84456 11.6729 9.82944 11.6608 9.80247C11.6328 9.74012 11.625 9.64186 11.625 9.5H11.375C11.375 9.63465 11.3795 9.78638 11.4327 9.90491C11.4612 9.96838 11.5052 10.0264 11.5716 10.0672C11.6373 10.1076 11.7148 10.125 11.8005 10.125V9.875ZM14 9.875H11.8005V10.125H14V9.875ZM14.125 12.1995V10H13.875V12.1995H14.125ZM14.5 12.375C14.3581 12.375 14.2599 12.3672 14.1975 12.3392C14.1706 12.3271 14.1554 12.3132 14.1457 12.2974C14.1355 12.2808 14.125 12.2518 14.125 12.1995H13.875C13.875 12.2852 13.8924 12.3627 13.9327 12.4284C13.9736 12.4948 14.0316 12.5388 14.0951 12.5673C14.2136 12.6205 14.3653 12.625 14.5 12.625V12.375ZM14.875 12.1995C14.875 12.2518 14.8645 12.2808 14.8543 12.2974C14.8446 12.3132 14.8294 12.3271 14.8025 12.3392C14.7401 12.3672 14.6418 12.375 14.5 12.375V12.625C14.6346 12.625 14.7864 12.6205 14.9049 12.5673C14.9684 12.5388 15.0264 12.4948 15.0672 12.4284C15.1076 12.3627 15.125 12.2852 15.125 12.1995H14.875ZM14.875 10V12.1995H15.125V10H14.875ZM17.1995 9.875H15V10.125H17.1995V9.875Z" fill="#11006F"/>
</svg>
